<svg id="Capa_1" enable-background="new 0 0 512 512" height="512" viewBox="0 0 512 512" width="512" xmlns="http://www.w3.org/2000/svg"><g><circle cx="436.804" cy="332.947" r="10"/><path d="m500.565 2.357c-3.071-2.586-7.388-3.087-10.971-1.279l-59.457 30.026c-7.771-1.994-15.791-3.003-23.894-3.003-11.506 0-22.719 2.007-33.4 5.973l-65.334-32.996c-3.585-1.812-7.901-1.308-10.971 1.279-3.07 2.585-4.302 6.754-3.129 10.593l23.331 76.328c-4.341 11.114-6.54 22.825-6.54 34.866 0 7.729.924 15.425 2.748 22.885 5.623 47.285-48.619 92.825-105.336 113.462-67.541 24.575-102.48 86.895-93.461 166.706.91 8.052 2.539 17.048 5.342 26.114h-34.452c-10.459 0-18.968-8.505-18.968-18.958v-55.782c0-16.047-13.055-29.102-29.102-29.102-15.863 0-29.102 13.238-29.102 29.102v69.022c-.001 35.514 28.897 64.407 64.416 64.407l230.42-.001c10.05 0 19.111-4.297 25.456-11.144 6.781 6.874 16.194 11.144 26.59 11.144 10.79 0 20.52-4.602 27.348-11.939 6.83 7.337 16.564 11.939 27.357 11.939 9.977 0 19.361-3.887 26.42-10.947s10.947-16.442 10.947-26.42v-97.046c0-5.533-4.486-10.02-10.02-10.02s-10.02 4.486-10.02 10.02v97.046c0 4.624-1.803 8.976-5.078 12.249-3.274 3.275-7.625 5.078-12.25 5.078-9.537 0-17.296-7.732-17.338-17.251 0-.026.002-.052.002-.079 0-.039-.005-.077-.006-.116v-114.76c0-5.533-4.486-10.02-10.02-10.02s-10.02 4.486-10.02 10.02v114.878c0 .025.002.05.002.076-.043 9.52-7.797 17.252-17.326 17.252-9.556 0-17.33-7.774-17.33-17.33v-114.875c0-5.533-4.486-10.02-10.02-10.02s-10.02 4.486-10.02 10.02v86.078c-4.461-2.09-9.434-3.265-14.677-3.265h-53.189c-5.534 0-10.02 4.486-10.02 10.02s4.486 10.02 10.02 10.02h53.189c8.093 0 14.677 6.584 14.677 14.677s-6.584 14.677-14.677 14.677h-115.8s0 0-.001 0c-.16 0-10.931-.156-22.699-7.743-8.834-5.696-16.076-14.51-21.189-25.184-.156-.387.201.362 0 0-4.305-9.373-7.487-21.114-8.953-34.088-3.959-35.041 1.482-66.917 15.738-92.182 13.896-24.626 36.256-43.107 64.663-53.442 62.44-22.72 125.98-75.364 118.181-135.982-.051-.392.096.384 0 0-1.523-6.057-2.406-12.901-2.406-19.197 0-10.539 2.125-20.751 6.316-30.354.956-2.191 1.097-4.652.398-6.937l-17.515-57.297 48.404 24.443c2.644 1.335 5.741 1.432 8.46.266 9.487-4.064 19.56-6.123 29.939-6.123 7.515 0 14.928 1.092 22.034 3.247 2.463.748 5.122.517 7.422-.643l41.966-21.19-12.219 39.985c-.665 2.176-.57 4.515.271 6.63 11.308 28.448 12.6 52.9 3.843 72.676-11.269 25.448-35.978 34.959-36.187 35.037-3.953 1.443-6.583 5.204-6.583 9.412v95.146c0 5.533 4.486 10.02 10.02 10.02s10.02-4.486 10.02-10.02v-88.721c10.277-5.294 30.008-18.1 40.908-42.431 10.809-24.128 10.095-52.777-2.114-85.202l18.076-59.137c1.172-3.839-.059-8.008-3.13-10.593zm-472.658 445.236v-69.022c0-5.39 4.885-9.677 10.228-8.988 4.454.574 7.898 4.499 7.898 8.988v55.782c0 21.503 17.498 38.997 39.007 38.997h42.888c3.706 6.677 8.312 13.012 14.035 18.611h-69.678c-24.47 0-44.378-19.903-44.378-44.368z"/><path d="m394.916 154.318c1.423-.648 9.575-4.543 16.525-11.629 6.95 7.086 15.102 10.981 16.525 11.629 1.347.614 2.759.904 4.149.904 3.805 0 7.443-2.178 9.123-5.867 2.294-5.035.073-10.977-4.963-13.272-2.831-1.291-13.67-7.591-14.972-14.843-.857-4.775-5.011-8.249-9.862-8.249s-9.005 3.475-9.862 8.249c-1.26 7.02-11.513 13.235-14.972 14.843-5.036 2.295-7.257 8.237-4.963 13.272s8.237 7.257 13.272 4.963z"/><circle cx="368.43" cy="95.2" r="10"/><circle cx="445.443" cy="95.2" r="10"/></g></svg>