<?xml version="1.0" encoding="utf-8"?>
<!-- Generator: Adobe Illustrator 24.0.1, SVG Export Plug-In . SVG Version: 6.00 Build 0)  -->
<svg version="1.1" id="Capa_1" xmlns="http://www.w3.org/2000/svg" xmlns:xlink="http://www.w3.org/1999/xlink" x="0px" y="0px"
	 viewBox="0 0 24 24" style="enable-background:new 0 0 24 24;" xml:space="preserve">
<style type="text/css">
	.st0{fill:#1D1D1B;}
</style>
<g>
	<g>
		<path class="st0" d="M24,2.8c-0.9,0.5-1.8,0.8-2.8,1c1-0.7,1.8-1.9,2.2-3.3c-1,0.7-2,1.2-3.1,1.5c-1-1.3-2.3-2-3.7-2
			c-2.7,0-4.9,2.7-4.9,6.1c0,0.5,0,0.9,0.1,1.4C7.7,7.2,4.1,4.8,1.7,1.1C1.2,2,1,3,1,4.2c0,2.1,0.9,4,2.2,5C2.4,9.2,1.6,8.9,1,8.4
			c0,0,0,0,0,0.1c0,2.9,1.7,5.4,3.9,5.9c-0.4,0.1-0.8,0.2-1.3,0.2c-0.3,0-0.6,0-0.9-0.1c0.6,2.4,2.4,4.2,4.6,4.2
			c-1.7,1.6-3.8,2.6-6.1,2.6c-0.4,0-0.8,0-1.2-0.1C2.2,23,4.8,24,7.5,24c9.1,0,14-9.2,14-17.2c0-0.3,0-0.5,0-0.8
			C22.5,5.1,23.3,4.1,24,2.8z"/>
	</g>
</g>
</svg>
